<?xml version="1.0" encoding="UTF-8"?>
<svg id="Layer_1" data-name="Layer 1" xmlns="http://www.w3.org/2000/svg" viewBox="0 0 1920 1080">
  <defs>
    <style>
      .cls-1 {
        fill: #fff;
      }

      .cls-2 {
        fill: #e6e6e6;
        opacity: .3;
      }
    </style>
  </defs>
  <path id="luna_grande" data-name="luna grande" class="cls-2" d="M912.41,854.15c-150.81,26.25-294.57-70.88-327.81-218.61-36.38-161.67,72.92-321.28,236.83-345.68,71.84-10.7,141.7,6.44,198.36,43.5,2.17,1.42,4.45-1.62,2.47-3.29-86.6-73.19-209.96-101.38-330.6-56.73-124.78,46.18-209.39,164.06-212.68,297.07-5.36,216.2,185.23,371.85,386.72,336.78,99.46-17.31,180.7-77.47,228.1-158.21,1.39-2.37-1.96-4.61-3.63-2.43-42.11,54.93-104.18,94.81-177.74,107.62Z"/>
  <g>
    <path class="cls-1" d="M499.5,589.64l-20.31,92.05h-37.9l19.29-91.04c6.43-31.13-6.09-51.78-32.49-51.78-23.01,0-41.29,16.24-47.72,46.37l-1.02,4.4-20.31,92.05h-37.9l19.29-91.04c6.43-31.13-6.09-51.78-32.49-51.78-24.03,0-42.3,18.28-49.41,51.44l-19.63,91.38h-38.24l36.21-168.88h34.52l-5.08,29.78c10.83-21.66,31.81-34.86,57.87-34.86s45.69,14.89,53.47,37.57c12.52-23.35,36.21-37.23,63.62-37.23,44,0,68.36,35.54,58.21,81.56Z"/>
    <path class="cls-1" d="M553.64,663.75c-13.2-13.54-21.32-32.49-21.32-55.5,0-28.09,10.49-54.83,29.78-73.78,16.58-16.24,39.26-26.74,67.35-26.74,23.35,0,44,8.46,58.55,23.01,14.21,14.21,22.67,33.84,22.67,55.84,0,29.44-10.83,55.16-28.43,73.1-17.6,17.26-41.29,27.41-68.36,27.41-24.03,0-45.35-8.46-60.24-23.35ZM652.46,639.05c11.84-11.85,18.61-29.78,18.61-50.76,0-14.55-4.4-26.74-12.86-35.54-7.11-7.44-17.6-11.51-31.14-11.51-14.55,0-27.41,5.41-36.89,15.23-11.17,11.51-18.27,29.44-18.27,50.09,0,14.55,4.4,27.07,12.86,35.2,7.11,7.78,17.6,12.18,31.14,12.18,14.89,0,27.41-5.42,36.55-14.89Z"/>
    <path class="cls-1" d="M759.74,663.75c-13.2-13.54-21.32-32.49-21.32-55.5,0-28.09,10.49-54.83,29.78-73.78,16.58-16.24,39.26-26.74,67.35-26.74,23.35,0,44,8.46,58.55,23.01,14.21,14.21,22.67,33.84,22.67,55.84,0,29.44-10.83,55.16-28.43,73.1-17.6,17.26-41.29,27.41-68.36,27.41-24.03,0-45.35-8.46-60.24-23.35ZM858.56,639.05c11.84-11.85,18.61-29.78,18.61-50.76,0-14.55-4.4-26.74-12.86-35.54-7.11-7.44-17.6-11.51-31.14-11.51-14.55,0-27.41,5.41-36.89,15.23-11.17,11.51-18.27,29.44-18.27,50.09,0,14.55,4.4,27.07,12.86,35.2,7.11,7.78,17.6,12.18,31.14,12.18,14.89,0,27.41-5.42,36.55-14.89Z"/>
    <path class="cls-1" d="M1113.72,589.64l-20.31,92.05h-37.9l19.29-91.04c6.43-31.13-6.09-51.78-32.49-51.78-24.03,0-42.3,18.28-49.41,51.44l-19.63,91.38h-38.24l36.21-168.88h34.52l-5.08,29.78c10.83-21.66,31.81-34.86,57.87-34.86,40.95,0,65.32,35.87,55.16,81.9Z"/>
    <path class="cls-1" d="M1229.12,485.74l-5.75,27.07h45.01l-6.77,33.17h-45.35l-29.78,139.77c-9.14,43.32-29.78,68.7-73.44,68.7-9.48,0-20.31-1.35-25.72-4.4l7.11-32.83c4.74,2.37,10.83,3.72,18.27,3.72,23.01,0,30.8-13.88,35.2-36.21l29.78-138.76h-35.2l6.77-33.17h35.54l7.11-33.17c8.46-38.92,33.16-55.16,73.44-55.16,9.48,0,21.32,2.37,26.74,4.4l-7.11,31.47c-4.74-2.03-12.86-3.38-19.97-3.38-20.31,0-31.81,9.48-35.87,28.77Z"/>
    <path class="cls-1" d="M1433.19,612.99h-125.22c1.35,11.17,5.42,20.31,12.52,27.41,8.8,8.46,22.67,13.54,40.95,13.54,23.69,0,49.07-7.45,61.59-15.23l-9.48,35.87c-9.81,6.09-33.17,12.52-57.53,12.52-30.8,0-54.83-10.83-70.05-30.12-10.83-13.2-17.94-30.8-17.94-50.09,0-27.75,10.49-53.47,29.44-72.09,16.92-16.58,40.27-27.07,67.69-27.07s48.06,11.85,61.59,28.43c9.48,12.18,14.21,27.41,14.21,42.98,0,13.2-3.72,28.77-7.78,33.84ZM1325.57,556.47c-6.43,6.77-11.51,15.23-14.55,25.04h89.68c.34-1.35.34-2.71.34-4.06,0-9.48-3.38-17.26-8.8-23.69-6.77-7.78-17.94-12.52-31.47-12.52-12.18,0-25.72,5.41-35.2,15.23Z"/>
    <path class="cls-1" d="M1448.75,674.58l7.45-30.46c8.46,5.08,25.04,10.83,39.26,10.83,25.38,0,33.5-10.83,33.5-22,0-7.78-3.72-14.21-13.2-21.66l-19.63-14.55c-15.23-11.51-21.32-23.35-21.32-38.24,0-26.06,26.06-50.76,70.05-50.76,15.23,0,32.15,5.08,38.92,8.12l-7.11,31.14c-7.11-3.38-18.61-6.77-32.49-6.77-17.6,0-28.77,8.12-28.77,18.95,0,5.75,3.05,10.83,10.83,16.58l17.6,13.2c13.88,10.49,24.71,24.37,24.71,42.3,0,33.84-31.14,55.84-72.42,55.84-18.95,0-37.57-6.43-47.38-12.52Z"/>
    <path class="cls-1" d="M1653.82,624.16c-.68,3.72-1.02,6.77-1.02,10.15,0,12.18,5.42,18.95,17.6,18.95,5.42,0,12.52-2.03,17.6-4.74l-7.11,33.5c-5.75,2.71-15.91,5.08-23.69,5.08-27.41,0-43.32-16.24-43.32-44.67,0-5.42.68-11.51,2.03-18.28l16.92-78.18h-26.74l7.11-33.17h26.74l9.14-42.64h38.24l-9.14,42.64h41.63l-7.11,33.17h-41.97l-16.92,78.18Z"/>
  </g>
  <g>
    <path class="cls-1" d="M803.71,422.07l-1.71,8.05h15.53l-2.11,10h-15.61l-4.39,20.41h-12.28l10.41-49.19h29.19l-2.2,10.73h-16.83Z"/>
    <path class="cls-1" d="M853.87,454.02c-3.5-4.47-4.96-10.57-3.5-17.48l5.45-25.21h12.52l-5.77,26.83c-.73,3.66-.16,6.67,1.79,8.94,1.55,1.95,4.15,3.09,7.56,3.09,3.9,0,6.67-1.38,8.7-3.09,1.95-1.71,3.58-4.55,4.31-7.97l6.02-27.81h12.52l-6.18,29.19c-1.22,5.61-3.41,10.24-7.72,14.31-4.47,4.31-10.65,6.75-18.46,6.75s-13.5-2.93-17.24-7.56Z"/>
    <path class="cls-1" d="M979.48,427.68c0,6.1-2.11,10.73-5.61,14.15-1.63,1.54-3.58,2.76-5.69,3.82l5.2,14.88h-13.01l-4.23-12.2c-.73.08-1.54.08-2.36.08-3.98,0-7.07-.41-9.43-.98l-2.85,13.09h-12.2l10.41-49.19h20.82c12.36,0,18.94,7.32,18.94,16.34ZM954.27,437.92c4.88,0,7.97-1.22,10-2.93,1.95-1.71,2.68-3.9,2.68-6.18,0-4.07-2.68-6.5-7.72-6.5h-9.51l-3.17,14.8c2.28.49,4.88.81,7.72.81Z"/>
    <path class="cls-1" d="M1055.58,427.68c0,6.1-2.11,10.73-5.61,14.15-1.63,1.54-3.58,2.76-5.69,3.82l5.2,14.88h-13.01l-4.23-12.2c-.73.08-1.54.08-2.36.08-3.98,0-7.07-.41-9.43-.98l-2.85,13.09h-12.2l10.41-49.19h20.82c12.36,0,18.95,7.32,18.95,16.34ZM1030.37,437.92c4.88,0,7.97-1.22,10-2.93,1.95-1.71,2.68-3.9,2.68-6.18,0-4.07-2.68-6.5-7.72-6.5h-9.51l-3.17,14.8c2.28.49,4.88.81,7.72.81Z"/>
    <path class="cls-1" d="M1106.06,445.57l-3.09,14.96h-12.77l3.17-15.29-10.41-33.91h12.93l5.77,22.44,15.61-22.44h13.74l-24.96,34.23Z"/>
  </g>
  <g id="Estrellas">
    <path class="cls-1" d="M1775.47,470.74l1.3-20.68,1.3,20.68c.41,6.5,5.59,11.68,12.09,12.09l20.68,1.3-20.68,1.3c-6.5.41-11.68,5.59-12.09,12.09l-1.3,20.68-1.3-20.68c-.41-6.5-5.59-11.68-12.09-12.09l-20.68-1.3,20.68-1.3c6.5-.41,11.68-5.59,12.09-12.09Z"/>
    <path class="cls-1" d="M1720.73,416.95l2.23-26.25,2.23,26.25c.64,7.5,6.59,13.45,14.09,14.09l26.25,2.23-26.25,2.23c-7.5.64-13.45,6.59-14.09,14.09l-2.23,26.25-2.23-26.25c-.64-7.5-6.59-13.45-14.09-14.09l-26.25-2.23,26.25-2.23c7.5-.64,13.45-6.59,14.09-14.09Z"/>
  </g>
</svg>