<?xml version="1.0" encoding="UTF-8"?>
<svg id="Layer_1" data-name="Layer 1" xmlns="http://www.w3.org/2000/svg" viewBox="0 0 1560.73 639.92">
  <defs>
    <style>
      .cls-1 {
        fill: #fff;
      }

      .cls-2 {
        fill: #e6e6e6;
        opacity: .3;
      }
    </style>
  </defs>
  <path id="luna_grande" data-name="luna grande" class="cls-2" d="M689.88,583.73c-146.18,25.45-285.52-68.7-317.74-211.89-35.26-156.71,70.68-311.41,229.55-335.07,69.63-10.37,137.35,6.24,192.26,42.16,2.1,1.37,4.31-1.57,2.4-3.19C712.41,4.8,592.84-22.53,475.9,20.75c-120.95,44.76-202.96,159.02-206.15,287.94-5.19,209.56,179.54,360.43,374.85,326.43,96.41-16.78,175.15-75.09,221.09-153.35,1.35-2.3-1.9-4.47-3.52-2.36-40.82,53.24-100.98,91.9-172.29,104.31Z"/>
  <g>
    <path class="cls-1" d="M289.65,327.34l-19.68,89.23h-36.74l18.7-88.24c6.23-30.18-5.9-50.19-31.49-50.19-22.31,0-40.02,15.75-46.25,44.94l-.98,4.26-19.68,89.23h-36.74l18.7-88.24c6.23-30.18-5.9-50.19-31.49-50.19-23.29,0-41,17.71-47.89,49.86l-19.03,88.57H0l35.1-163.69h33.46l-4.92,28.87c10.5-20.99,30.84-33.79,56.09-33.79s44.28,14.43,51.83,36.41c12.14-22.64,35.1-36.08,61.67-36.08,42.64,0,66.26,34.44,56.42,79.06Z"/>
    <path class="cls-1" d="M342.13,399.18c-12.79-13.12-20.67-31.49-20.67-53.8,0-27.23,10.17-53.14,28.87-71.51,16.07-15.75,38.05-25.92,65.28-25.92,22.63,0,42.64,8.2,56.75,22.31,13.78,13.78,21.98,32.8,21.98,54.13,0,28.54-10.5,53.47-27.56,70.86-17.06,16.73-40.02,26.57-66.26,26.57-23.29,0-43.96-8.2-58.39-22.63ZM437.92,375.23c11.48-11.48,18.04-28.87,18.04-49.21,0-14.11-4.26-25.92-12.47-34.44-6.89-7.22-17.06-11.15-30.18-11.15-14.11,0-26.57,5.25-35.76,14.76-10.82,11.15-17.71,28.54-17.71,48.55,0,14.11,4.26,26.24,12.46,34.12,6.89,7.54,17.06,11.81,30.18,11.81,14.43,0,26.57-5.25,35.43-14.43Z"/>
    <path class="cls-1" d="M541.9,399.18c-12.79-13.12-20.67-31.49-20.67-53.8,0-27.23,10.17-53.14,28.87-71.51,16.07-15.75,38.05-25.92,65.28-25.92,22.63,0,42.64,8.2,56.75,22.31,13.78,13.78,21.98,32.8,21.98,54.13,0,28.54-10.5,53.47-27.55,70.86-17.06,16.73-40.02,26.57-66.26,26.57-23.29,0-43.96-8.2-58.39-22.63ZM637.68,375.23c11.48-11.48,18.04-28.87,18.04-49.21,0-14.11-4.26-25.92-12.47-34.44-6.89-7.22-17.06-11.15-30.18-11.15-14.11,0-26.57,5.25-35.76,14.76-10.82,11.15-17.71,28.54-17.71,48.55,0,14.11,4.26,26.24,12.46,34.12,6.89,7.54,17.06,11.81,30.18,11.81,14.43,0,26.57-5.25,35.43-14.43Z"/>
    <path class="cls-1" d="M885.01,327.34l-19.68,89.23h-36.74l18.7-88.24c6.23-30.18-5.9-50.19-31.49-50.19-23.29,0-41,17.71-47.89,49.86l-19.03,88.57h-37.07l35.1-163.69h33.46l-4.92,28.87c10.5-20.99,30.83-33.79,56.09-33.79,39.69,0,63.31,34.77,53.47,79.38Z"/>
    <path class="cls-1" d="M996.86,226.63l-5.58,26.24h43.63l-6.56,32.15h-43.96l-28.87,135.48c-8.86,41.99-28.87,66.59-71.18,66.59-9.18,0-19.68-1.31-24.93-4.26l6.89-31.82c4.59,2.3,10.5,3.61,17.71,3.61,22.31,0,29.85-13.45,34.12-35.1l28.87-134.49h-34.12l6.56-32.15h34.44l6.89-32.15c8.2-37.72,32.15-53.47,71.18-53.47,9.19,0,20.67,2.3,25.92,4.26l-6.89,30.51c-4.59-1.97-12.47-3.28-19.35-3.28-19.68,0-30.83,9.19-34.77,27.88Z"/>
    <path class="cls-1" d="M1194.67,349.97h-121.37c1.31,10.83,5.25,19.68,12.14,26.57,8.53,8.2,21.98,13.12,39.69,13.12,22.96,0,47.57-7.22,59.7-14.76l-9.18,34.77c-9.51,5.9-32.15,12.14-55.77,12.14-29.85,0-53.14-10.5-67.9-29.2-10.5-12.79-17.39-29.85-17.39-48.55,0-26.9,10.17-51.83,28.54-69.87,16.4-16.07,39.04-26.24,65.61-26.24s46.58,11.48,59.7,27.56c9.19,11.81,13.78,26.57,13.78,41.66,0,12.79-3.61,27.88-7.54,32.8ZM1090.35,295.19c-6.23,6.56-11.15,14.76-14.11,24.28h86.93c.33-1.31.33-2.62.33-3.94,0-9.19-3.28-16.73-8.53-22.96-6.56-7.54-17.39-12.14-30.51-12.14-11.81,0-24.93,5.25-34.12,14.76Z"/>
    <path class="cls-1" d="M1209.75,409.67l7.22-29.52c8.2,4.92,24.27,10.5,38.05,10.5,24.6,0,32.48-10.5,32.48-21.32,0-7.54-3.61-13.78-12.79-20.99l-19.03-14.1c-14.76-11.15-20.67-22.63-20.67-37.07,0-25.26,25.26-49.21,67.9-49.21,14.76,0,31.16,4.92,37.72,7.87l-6.89,30.18c-6.89-3.28-18.04-6.56-31.49-6.56-17.06,0-27.88,7.87-27.88,18.37,0,5.58,2.95,10.5,10.5,16.07l17.06,12.79c13.45,10.17,23.95,23.62,23.95,41,0,32.8-30.18,54.13-70.2,54.13-18.37,0-36.41-6.23-45.92-12.14Z"/>
    <path class="cls-1" d="M1408.52,360.8c-.66,3.61-.98,6.56-.98,9.84,0,11.81,5.25,18.37,17.06,18.37,5.25,0,12.14-1.97,17.06-4.59l-6.89,32.48c-5.58,2.62-15.42,4.92-22.96,4.92-26.57,0-41.99-15.75-41.99-43.3,0-5.25.66-11.15,1.97-17.71l16.4-75.78h-25.92l6.89-32.15h25.92l8.86-41.33h37.07l-8.86,41.33h40.35l-6.89,32.15h-40.68l-16.4,75.78Z"/>
  </g>
  <g>
    <path class="cls-1" d="M584.51,164.91l-1.65,7.8h15.05l-2.05,9.69h-15.13l-4.26,19.78h-11.9l10.09-47.68h28.29l-2.13,10.4h-16.31Z"/>
    <path class="cls-1" d="M633.14,195.89c-3.39-4.33-4.81-10.25-3.39-16.94l5.28-24.43h12.14l-5.6,26.01c-.71,3.55-.16,6.46,1.73,8.67,1.5,1.89,4.02,2.99,7.33,2.99,3.78,0,6.46-1.34,8.43-2.99,1.89-1.66,3.47-4.41,4.18-7.72l5.83-26.95h12.14l-5.99,28.29c-1.18,5.44-3.31,9.93-7.49,13.87-4.33,4.18-10.32,6.54-17.89,6.54s-13.08-2.84-16.71-7.33Z"/>
    <path class="cls-1" d="M754.89,170.35c0,5.91-2.05,10.4-5.44,13.71-1.58,1.5-3.47,2.68-5.52,3.7l5.04,14.42h-12.61l-4.1-11.82c-.71.08-1.5.08-2.29.08-3.86,0-6.86-.39-9.14-.95l-2.76,12.69h-11.82l10.09-47.68h20.18c11.98,0,18.36,7.09,18.36,15.84ZM730.46,180.28c4.73,0,7.72-1.18,9.69-2.84,1.89-1.65,2.6-3.78,2.6-5.99,0-3.94-2.6-6.31-7.49-6.31h-9.22l-3.07,14.34c2.21.47,4.73.79,7.49.79Z"/>
    <path class="cls-1" d="M828.65,170.35c0,5.91-2.05,10.4-5.44,13.71-1.58,1.5-3.47,2.68-5.52,3.7l5.04,14.42h-12.61l-4.1-11.82c-.71.08-1.5.08-2.29.08-3.86,0-6.86-.39-9.14-.95l-2.76,12.69h-11.82l10.09-47.68h20.18c11.98,0,18.36,7.09,18.36,15.84ZM804.22,180.28c4.73,0,7.72-1.18,9.69-2.84,1.89-1.65,2.6-3.78,2.6-5.99,0-3.94-2.6-6.31-7.49-6.31h-9.22l-3.07,14.34c2.21.47,4.73.79,7.49.79Z"/>
    <path class="cls-1" d="M877.59,187.69l-3,14.5h-12.37l3.07-14.82-10.09-32.86h12.53l5.6,21.75,15.13-21.75h13.32l-24.2,33.18Z"/>
  </g>
  <g id="Estrellas">
    <path class="cls-1" d="M1526.43,212.09l1.26-20.05,1.26,20.05c.4,6.3,5.42,11.32,11.72,11.72l20.05,1.26-20.05,1.26c-6.3.4-11.32,5.42-11.72,11.72l-1.26,20.05-1.26-20.05c-.4-6.3-5.42-11.32-11.72-11.72l-20.05-1.26,20.05-1.26c6.3-.4,11.32-5.42,11.72-11.72Z"/>
    <path class="cls-1" d="M1473.38,159.95l2.17-25.45,2.17,25.45c.62,7.27,6.39,13.04,13.66,13.66l25.45,2.17-25.45,2.17c-7.27.62-13.04,6.39-13.66,13.66l-2.17,25.45-2.17-25.45c-.62-7.27-6.39-13.04-13.66-13.66l-25.45-2.17,25.45-2.17c7.27-.62,13.04-6.39,13.66-13.66Z"/>
  </g>
</svg>